<svg width="54" height="47" viewBox="0 0 54 47" fill="none" xmlns="http://www.w3.org/2000/svg">
<g opacity="0.2" clip-path="url(#clip0_44_193)">
<path d="M4.41289 38.7897C2.58002 38.7897 0.695343 40.2591 0.695343 42.831C0.695343 45.1822 2.35242 46.8429 4.41289 46.8429C6.11372 46.8429 6.87175 45.7008 6.87175 45.7008V46.1987C6.87175 46.434 7.09413 46.6965 7.36937 46.6965H8.59881V38.9654H6.87175V39.9465C6.87175 39.9465 6.10737 38.7897 4.41289 38.7897ZM4.72054 40.3706C6.22939 40.3706 7.02086 41.6981 7.02086 42.8304C7.02086 44.0916 6.08114 45.2894 4.72374 45.2894C3.58905 45.2894 2.45241 44.37 2.45241 42.8138C2.45241 41.409 3.43056 40.3706 4.72054 40.3706Z" fill="#6D758D"/>
<path d="M10.9988 46.697C10.7334 46.697 10.5011 46.5066 10.5011 46.1992V38.966H12.2282V39.9227C12.6195 39.3342 13.3841 38.7879 14.5577 38.7879C16.4758 38.7879 17.4972 40.3176 17.4972 41.748V46.697H16.297C15.9823 46.697 15.7701 46.4335 15.7701 46.1699V42.1287C15.7701 41.3358 15.2845 40.3729 14.1615 40.3729C12.9497 40.3729 12.2282 41.5186 12.2282 42.5972V46.697H10.9988Z" fill="#6D758D"/>
<path d="M22.5316 38.7888C20.6987 38.7888 18.814 40.2582 18.814 42.8301C18.814 45.1813 20.4711 46.842 22.5316 46.842C24.2324 46.842 24.9904 45.6999 24.9904 45.6999V46.1978C24.9904 46.4331 25.2128 46.6956 25.4881 46.6956H26.7175V35.099H24.9904V39.9456C24.9904 39.9456 24.226 38.7888 22.5316 38.7888ZM22.8392 40.3697C24.3481 40.3697 25.1395 41.6972 25.1395 42.8295C25.1395 44.0907 24.1998 45.2884 22.8424 45.2885C21.7077 45.2885 20.5711 44.3691 20.5711 42.8128C20.5711 41.408 21.5492 40.3697 22.8392 40.3697Z" fill="#6D758D"/>
<path d="M29.1181 46.6962C28.8527 46.6962 28.6205 46.5058 28.6205 46.1983V38.9651H30.3475V40.2536C30.6448 39.5318 31.2863 38.8773 32.4258 38.8773C32.7435 38.8773 33.0406 38.9358 33.0406 38.9358V40.7222C33.0406 40.7222 32.6696 40.5757 32.2209 40.5757C31.0092 40.5757 30.3475 41.7214 30.3475 42.8001V46.6962H29.1181Z" fill="#6D758D"/>
<path d="M43.5195 46.6957C43.2541 46.6957 43.0219 46.5053 43.0219 46.1978V38.9646H44.7489V46.6957H43.5195Z" fill="#6D758D"/>
<path d="M49.8146 38.7898C47.9818 38.7898 46.0971 40.2591 46.0971 42.831C46.0971 45.1823 47.7542 46.843 49.8146 46.843C51.5155 46.843 52.2735 45.7009 52.2735 45.7009V46.1987C52.2735 46.434 52.4959 46.6966 52.7711 46.6966H54.0005V35.1H52.2735V39.9465C52.2735 39.9465 51.5091 38.7898 49.8146 38.7898ZM50.1223 40.3706C51.6311 40.3706 52.4226 41.6982 52.4226 42.8305C52.4226 44.0917 51.4829 45.2894 50.1255 45.2894C48.9908 45.2894 47.8541 44.3701 47.8541 42.8138C47.8541 41.409 48.8323 40.3706 50.1223 40.3706Z" fill="#6D758D"/>
<path d="M43.8724 37.2978C44.5033 37.2978 45.0147 36.7862 45.0147 36.1551C45.0147 35.524 44.5033 35.0123 43.8724 35.0123C43.2416 35.0123 42.7301 35.524 42.7301 36.1551C42.7301 36.7862 43.2416 37.2978 43.8724 37.2978Z" fill="#6D758D"/>
<path d="M37.5963 38.7874C35.6768 38.7874 33.5679 40.2208 33.5679 42.8174C33.5679 45.1837 35.3641 46.8434 37.5921 46.8434C40.3378 46.8434 41.6785 44.6352 41.6785 42.8324C41.6785 40.6202 39.9521 38.7874 37.5963 38.7874ZM37.6026 40.4009C38.9299 40.4009 39.9201 41.4711 39.9201 42.8223C39.9201 44.1969 38.869 45.2576 37.6065 45.2576C36.4345 45.2576 35.2953 44.3034 35.2953 42.8454C35.2953 41.3631 36.3788 40.4009 37.6026 40.4009Z" fill="#6D758D"/>
<path d="M40.3559 9.29955L44.7747 1.64178C45.024 1.21248 44.8732 0.667158 44.4499 0.4177C44.0266 0.168245 43.4757 0.313274 43.2321 0.742574L38.7554 8.49897C35.3398 6.93841 31.4951 6.06821 27.3605 6.06821C23.2259 6.06821 19.3812 6.93841 15.9656 8.49897L11.4888 0.742574C11.2395 0.313274 10.6944 0.168245 10.2653 0.4177C9.83615 0.667158 9.69118 1.21248 9.94053 1.64178L14.3593 9.29955C6.73953 13.4301 1.57848 21.1459 0.726044 30.1786H53.9949C53.1425 21.1459 47.9815 13.4301 40.3559 9.29955ZM15.1306 22.6949C13.8954 22.6949 12.898 21.6912 12.898 20.4613C12.898 19.2257 13.9012 18.2278 15.1306 18.2278C16.3657 18.2278 17.3631 19.2315 17.3631 20.4613C17.369 21.6912 16.3657 22.6949 15.1306 22.6949ZM39.5846 22.6949C38.3494 22.6949 37.352 21.6912 37.352 20.4613C37.352 19.2257 38.3552 18.2278 39.5846 18.2278C40.8198 18.2278 41.8172 19.2315 41.8172 20.4613C41.823 21.6912 40.8198 22.6949 39.5846 22.6949Z" fill="#151828"/>
</g>
<defs>
<clipPath id="clip0_44_193">
<rect width="53.3045" height="46.5476" fill="white" transform="translate(0.694336 0.295532)"/>
</clipPath>
</defs>
</svg>
