<svg width="16" height="16" viewBox="0 0 16 16" fill="none" xmlns="http://www.w3.org/2000/svg">
<path opacity="0.6" d="M9.56364 3.46668C9.20661 3.40076 8.8787 3.62848 8.81073 3.97681C8.74276 4.32514 8.97132 4.66523 9.31864 4.7334C10.3643 4.93715 11.1718 5.74618 11.3764 6.79491V6.79566C11.4347 7.09754 11.7006 7.31703 12.0068 7.31703C12.0479 7.31703 12.089 7.31328 12.1308 7.30579C12.4781 7.23613 12.7067 6.89679 12.6387 6.54771C12.3332 4.98135 11.127 3.77156 9.56364 3.46668Z" fill="#6B6D8D"/>
<path opacity="0.6" d="M9.51683 0.85653C9.34951 0.832559 9.18146 0.881999 9.04776 0.988371C8.91032 1.09624 8.82443 1.25205 8.80575 1.42659C8.76617 1.77942 9.02087 2.09853 9.37342 2.13823C11.8047 2.4094 13.6944 4.30237 13.9678 6.73992C14.0044 7.06653 14.2785 7.31298 14.6056 7.31298C14.6303 7.31298 14.6542 7.31148 14.6788 7.30849C14.8499 7.28976 15.0023 7.20511 15.1098 7.07027C15.2166 6.93544 15.2652 6.76764 15.2458 6.5961C14.9052 3.55477 12.5501 1.19437 9.51683 0.85653Z" fill="#6B6D8D"/>
<path d="M11.9535 10.3505C11.4673 10.2471 11.0826 10.4718 10.742 10.6681C10.3932 10.8703 9.72916 11.4059 9.34972 11.2681C7.40323 10.4711 5.57252 8.77437 4.78003 6.82972C4.64035 6.44244 5.1759 5.77799 5.37682 5.42742C5.57326 5.08733 5.79435 4.70004 5.69352 4.21313C5.60239 3.77491 4.42374 2.28196 4.00696 1.87371C3.73134 1.60403 3.4505 1.45571 3.16144 1.43099C2.07466 1.3853 0.860906 2.8288 0.648032 3.17414C0.11398 3.9105 0.117715 4.89031 0.656996 6.07838C1.95665 9.26952 6.87217 14.0855 10.0899 15.4278C10.683 15.7043 11.2267 15.8428 11.7145 15.8428C12.1918 15.8428 12.6168 15.7102 12.982 15.4473C13.2569 15.2893 14.7672 14.021 14.7268 12.9101C14.7037 12.627 14.5551 12.3438 14.2877 12.0696C13.8798 11.6509 12.3905 10.4426 11.9535 10.3505Z" fill="#6B6D8D"/>
</svg>
