<svg width="177" height="171" viewBox="0 0 177 171" fill="none" xmlns="http://www.w3.org/2000/svg">
<g opacity="0.1">
<path d="M115.693 52.4994C147.363 52.0156 173.212 76.9421 173.825 108.61C173.915 113.259 173.451 117.785 172.493 122.126C170.872 129.476 169.908 136.956 169.908 144.483V159.032C169.908 161.261 168.101 163.068 165.872 163.068H151.323C143.796 163.068 136.317 164.031 128.966 165.653C124.626 166.61 120.1 167.075 115.451 166.985C83.7833 166.372 58.8568 140.524 59.3399 108.854C59.8111 77.9421 84.7813 52.9716 115.693 52.4994Z" fill="url(#paint0_linear_44_70)"/>
<path d="M118.404 56.1876C150.075 55.7038 175.924 80.6303 176.537 112.298C176.627 116.948 176.162 121.473 175.205 125.814C173.583 133.164 172.62 140.644 172.62 148.171V162.72C172.62 164.949 170.813 166.756 168.584 166.756H154.034C146.507 166.756 139.028 167.72 131.678 169.341C127.337 170.298 122.812 170.763 118.162 170.673C86.4946 170.06 61.5681 144.212 62.0512 112.542C62.5224 81.6303 87.4926 56.6598 118.404 56.1876Z" fill="url(#paint1_linear_44_70)"/>
<path d="M71.2243 0.254043C32.6413 -0.335404 1.15029 30.0316 0.402982 68.6119C0.293562 74.2757 0.859634 79.7897 2.02633 85.0778C4.00132 94.032 5.17547 103.144 5.17547 112.314V130.039C5.17547 132.755 7.37675 134.956 10.0926 134.956H27.8173C36.987 134.956 46.0993 136.13 55.0538 138.105C60.3419 139.272 65.8556 139.838 71.5194 139.728C110.099 138.981 140.466 107.491 139.878 68.909C139.303 31.2498 108.883 0.828923 71.2243 0.254043Z" fill="url(#paint2_linear_44_70)"/>
<path d="M37.3102 84.4524C43.2768 84.4524 48.1136 79.6155 48.1136 73.6489C48.1136 67.6823 43.2768 62.8455 37.3102 62.8455C31.3436 62.8455 26.5067 67.6823 26.5067 73.6489C26.5067 79.6155 31.3436 84.4524 37.3102 84.4524Z" fill="white"/>
<path d="M67.8641 84.4524C73.8307 84.4524 78.6676 79.6155 78.6676 73.6489C78.6676 67.6823 73.8307 62.8455 67.8641 62.8455C61.8975 62.8455 57.0606 67.6823 57.0606 73.6489C57.0606 79.6155 61.8975 84.4524 67.8641 84.4524Z" fill="white"/>
<path d="M98.4178 84.4524C104.384 84.4524 109.221 79.6155 109.221 73.6489C109.221 67.6823 104.384 62.8455 98.4178 62.8455C92.4513 62.8455 87.6144 67.6823 87.6144 73.6489C87.6144 79.6155 92.4513 84.4524 98.4178 84.4524Z" fill="white"/>
</g>
<defs>
<linearGradient id="paint0_linear_44_70" x1="105.028" y1="98.1907" x2="189.083" y2="182.246" gradientUnits="userSpaceOnUse">
<stop stop-color="#BEFFF5"/>
<stop offset="1" stop-color="#0CF9D4"/>
</linearGradient>
<linearGradient id="paint1_linear_44_70" x1="135.254" y1="129.393" x2="99.5522" y2="93.6941" gradientUnits="userSpaceOnUse">
<stop stop-color="#00D0B0" stop-opacity="0"/>
<stop offset="1" stop-color="#00D0B0"/>
</linearGradient>
<linearGradient id="paint2_linear_44_70" x1="44.6555" y1="58.7176" x2="133.4" y2="147.462" gradientUnits="userSpaceOnUse">
<stop stop-color="#8C98E4"/>
<stop offset="1" stop-color="#1F2D91"/>
</linearGradient>
</defs>
</svg>
