<svg width="16" height="15" viewBox="0 0 16 15" fill="none" xmlns="http://www.w3.org/2000/svg">
<path opacity="0.6" d="M15.25 10.3021C15.25 12.3935 13.57 14.0876 11.4775 14.0951H11.47H4.0375C1.9525 14.0951 0.25 12.4085 0.25 10.3171V10.3096C0.25 10.3096 0.2545 6.99179 0.2605 5.32316C0.26125 5.00982 0.62125 4.83441 0.8665 5.02931C2.6485 6.44232 5.83525 9.01873 5.875 9.05247C6.4075 9.47899 7.0825 9.71962 7.7725 9.71962C8.4625 9.71962 9.1375 9.47899 9.67 9.04422C9.70975 9.01798 12.8253 6.51878 14.6343 5.08253C14.8803 4.88688 15.2417 5.06229 15.2425 5.37488C15.25 7.03077 15.25 10.3021 15.25 10.3021Z" fill="#6B6D8D"/>
<path d="M14.8567 2.60626C14.2072 1.3829 12.9292 0.601807 11.5222 0.601807H4.03721C2.63021 0.601807 1.35221 1.3829 0.702714 2.60626C0.557214 2.87987 0.626214 3.22094 0.868464 3.41434L6.43721 7.86627C6.82721 8.18111 7.29971 8.33778 7.77221 8.33778C7.77521 8.33778 7.77746 8.33778 7.77971 8.33778C7.78196 8.33778 7.78496 8.33778 7.78721 8.33778C8.25971 8.33778 8.73221 8.18111 9.12221 7.86627L14.691 3.41434C14.9332 3.22094 15.0022 2.87987 14.8567 2.60626Z" fill="#6B6D8D"/>
</svg>
