<svg width="18" height="18" viewBox="0 0 18 18" fill="none" xmlns="http://www.w3.org/2000/svg">
<path d="M17.2458 17.9733L17.2501 17.9722V11.649C17.2501 8.55535 16.5838 6.17285 12.9656 6.17285C11.2266 6.17285 10.059 7.1265 9.58248 8.03165H9.53289V6.46164H6.10229V17.9722H9.6752V12.2729C9.6752 10.7719 9.95983 9.32149 11.8196 9.32149C13.6513 9.32149 13.6794 11.0337 13.6794 12.3699V17.9733H17.2458Z" fill="#44466F"/>
<path d="M0.284821 6.46289H3.86096V17.9734H0.284821V6.46289Z" fill="#6B6D8D"/>
<path d="M2.07108 0.732422C0.928265 0.732422 0 1.6602 0 2.80242C0 3.94572 0.928265 4.89182 2.07108 4.89182C3.21389 4.89182 4.14216 3.94572 4.14216 2.80242C4.14216 1.6602 3.21389 0.732422 2.07108 0.732422Z" fill="#6B6D8D"/>
</svg>
