<svg width="1440" height="211" viewBox="0 0 1440 211" fill="none" xmlns="http://www.w3.org/2000/svg">
<path d="M728 7.21641e-05C440.59 -0.0720516 0.5 42.7277 0.5 42.7277V210.266H1440.5V42.7277C1440.5 42.7277 1014.83 0.072049 728 7.21641e-05Z" fill="url(#paint0_linear_44_79)"/>
<path fill-rule="evenodd" clip-rule="evenodd" d="M1440.5 126.118C1413.27 150.608 1376.26 165.664 1335.5 165.664C1251.83 165.664 1184 102.233 1184 23.9876C1184 23.1765 1184.01 22.367 1184.02 21.5591C1330.18 32.4226 1440.5 43.4775 1440.5 43.4775V126.118Z" fill="url(#paint1_linear_44_79)"/>
<path fill-rule="evenodd" clip-rule="evenodd" d="M455.466 210.283C490.182 164.45 510.5 108.937 510.5 49.1162C510.5 34.4581 509.28 20.0587 506.927 5.99683C257.47 17.7536 0.5 42.7446 0.5 42.7446V210.283H455.466Z" fill="url(#paint2_linear_44_79)"/>
<path fill-rule="evenodd" clip-rule="evenodd" d="M473.527 5.51416C440.869 52.3045 359.454 85.4556 264.187 85.4556C187.965 85.4556 120.61 64.2344 79.9999 31.7852C180.384 23.3823 328.82 12.1307 473.527 5.51416Z" fill="white" fill-opacity="0.02"/>
<defs>
<linearGradient id="paint0_linear_44_79" x1="720.5" y1="-142.801" x2="720.5" y2="210.266" gradientUnits="userSpaceOnUse">
<stop stop-color="#1F2B95"/>
<stop offset="1" stop-color="#3D59C9"/>
</linearGradient>
<linearGradient id="paint1_linear_44_79" x1="1411.25" y1="-197.147" x2="1206.27" y2="93.8018" gradientUnits="userSpaceOnUse">
<stop stop-color="white" stop-opacity="0"/>
<stop offset="1" stop-color="white" stop-opacity="0.02"/>
</linearGradient>
<linearGradient id="paint2_linear_44_79" x1="227.375" y1="5.99683" x2="255.471" y2="210.287" gradientUnits="userSpaceOnUse">
<stop stop-color="white" stop-opacity="0.1"/>
<stop offset="1" stop-color="white" stop-opacity="0"/>
</linearGradient>
</defs>
</svg>
