<svg width="20" height="21" viewBox="0 0 20 21" fill="none" xmlns="http://www.w3.org/2000/svg">
<path d="M14.224 12.4656L14.2167 12.5265C12.43 11.6373 12.2435 11.5179 12.0119 11.8639C11.8523 12.1039 11.3855 12.6471 11.2453 12.8079C11.1028 12.9663 10.9614 12.9785 10.7201 12.8688C10.4763 12.747 9.69388 12.4912 8.76763 11.6629C8.04613 11.0173 7.56228 10.2255 7.41847 9.98189C7.1796 9.57139 7.67806 9.51292 8.13144 8.65537C8.2131 8.48483 8.17166 8.35084 8.11072 8.23024C8.04978 8.10843 7.56472 6.91468 7.36119 6.4384C7.16619 5.96455 6.9651 6.02424 6.81519 6.02424C6.34719 5.98404 6.00472 5.99013 5.70369 6.30318C4.39231 7.74422 4.72259 9.2291 5.84506 10.8102C8.04978 13.6947 9.22466 14.2258 11.3733 14.9628C11.9534 15.1467 12.4824 15.1211 12.9004 15.0614C13.3672 14.9871 14.3361 14.4755 14.5384 13.903C14.7456 13.3305 14.7456 12.8554 14.6847 12.7458C14.6274 12.6362 14.4677 12.5753 14.224 12.4656Z" fill="#44466F"/>
<path d="M16.6725 3.64832C10.4252 -2.38744 0.085313 1.99047 0.0816567 10.5063C0.0816567 12.208 0.527719 13.8683 1.37719 15.3337L0 20.3377L5.14678 18.9966C11.5696 22.4633 19.4963 17.8601 19.5 10.5112C19.5 7.93244 18.4921 5.50473 16.6603 3.68121L16.6725 3.64832ZM17.8766 10.4844C17.8717 16.6834 11.0638 20.5533 5.67937 17.3899L5.38688 17.2157L2.34 18.0075L3.15656 15.0474L2.96278 14.7429C-0.388782 9.41245 3.46125 2.44483 9.8085 2.44483C11.9645 2.44483 13.9888 3.28533 15.5135 4.80797C17.0369 6.31722 17.8766 8.34051 17.8766 10.4844Z" fill="#6B6D8D"/>
</svg>
