<svg width="332" height="333" viewBox="0 0 332 333" fill="none" xmlns="http://www.w3.org/2000/svg">
<path d="M261.882 103.25L175.728 152.991C172.327 154.955 167.985 153.792 166.022 150.39L116.044 63.8261C114.08 60.4247 115.243 56.0832 118.645 54.1194C169.546 24.7315 235.095 42.6421 264.483 93.5434C266.447 96.9448 265.283 101.286 261.882 103.25Z" fill="#F0F2FD"/>
<path d="M243.401 243.778L167.281 181.004L118.18 95.9583C116.19 92.5117 111.92 91.3675 108.473 93.3573C57.5196 122.776 39.2209 188.479 68.6391 239.432C98.0573 290.386 164.344 307.801 215.298 278.383C217.39 277.175 219.289 275.915 221.309 274.583C230.009 268.904 237.611 261.889 244.256 253.786C246.817 250.832 246.356 246.338 243.401 243.778Z" fill="#F0F2FD"/>
<path d="M267.011 241.223C266.139 241.726 265.167 242.039 264.15 242.137C262.27 242.325 260.402 241.753 258.944 240.56L181.878 176.943C180.076 175.459 179.119 173.191 179.309 170.87C179.506 168.545 180.82 166.464 182.839 165.298L268.993 115.557C272.394 113.593 276.736 114.757 278.7 118.158C300.767 156.379 296.986 205.415 268.951 239.574C268.401 240.244 267.744 240.8 267.011 241.223Z" fill="#F0F2FD"/>
<path d="M244.26 253.786C237.615 261.889 230.013 268.904 221.313 274.583L167.285 181.004L243.404 243.778C246.36 246.338 246.82 250.831 244.26 253.786Z" fill="#E8ECFF"/>
</svg>
