<svg width="46" height="50" viewBox="0 0 46 50" fill="none" xmlns="http://www.w3.org/2000/svg">
<path d="M36.089 27.0204C37.6222 25.4906 38.5775 23.4765 38.7919 21.3214C39.0064 19.1662 38.4667 17.0033 37.265 15.2015C36.0633 13.3996 34.2739 12.0703 32.2018 11.4401C30.1296 10.8099 27.9031 10.9179 25.9017 11.7456C23.9002 12.5732 22.2478 14.0694 21.226 15.9791C20.2042 17.8887 19.8764 20.0936 20.2983 22.218C20.7202 24.3423 21.8658 26.2545 23.5398 27.6288C25.2139 29.003 27.3127 29.7541 29.4785 29.7541C31.957 29.7541 34.3344 28.771 36.089 27.0204ZM23.9853 14.9165C25.0718 13.83 26.456 13.0902 27.9629 12.7904C29.4698 12.4907 31.0318 12.6445 32.4513 13.2325C33.8708 13.8205 35.0841 14.8162 35.9377 16.0937C36.7913 17.3712 37.2469 18.8732 37.2469 20.4096C37.2469 21.9461 36.7913 23.448 35.9377 24.7256C35.0841 26.0031 33.8708 26.9988 32.4513 27.5868C31.0318 28.1747 29.4698 28.3286 27.9629 28.0288C26.456 27.7291 25.0718 26.9892 23.9853 25.9028C23.261 25.1831 22.6862 24.3272 22.2939 23.3845C21.9017 22.4417 21.6997 21.4307 21.6997 20.4096C21.6997 19.3885 21.9017 18.3775 22.2939 17.4348C22.6862 16.4921 23.261 15.6362 23.9853 14.9165Z" fill="#528FFF"/>
<path d="M14.3919 33.2592L11.0398 36.6111C10.8916 36.7592 10.8084 36.9602 10.8084 37.1698C10.8084 37.3793 10.8917 37.5803 11.0399 37.7285C11.188 37.8766 11.389 37.9599 11.5986 37.9599C11.8081 37.9598 12.0091 37.8766 12.1573 37.7284L15.5092 34.3765C15.5826 34.3032 15.6408 34.2161 15.6805 34.1202C15.7202 34.0244 15.7406 33.9216 15.7406 33.8179C15.7406 33.7141 15.7202 33.6114 15.6805 33.5155C15.6408 33.4196 15.5826 33.3325 15.5092 33.2592C15.4359 33.1858 15.3488 33.1276 15.2529 33.0879C15.1571 33.0482 15.0543 33.0278 14.9506 33.0278C14.8468 33.0278 14.7441 33.0482 14.6482 33.0879C14.5523 33.1276 14.4652 33.1858 14.3919 33.2592Z" fill="#528FFF"/>
<path d="M44.3575 0H14.3349C14.1254 0 13.9244 0.0832392 13.7762 0.231406C13.6281 0.379573 13.5448 0.58053 13.5448 0.79007V30.0227C13.545 30.2184 13.6178 30.407 13.7493 30.552L1.54566 42.7566C1.1017 43.2014 0.852356 43.8041 0.852356 44.4325C0.852356 45.061 1.1017 45.6637 1.54566 46.1085L3.77958 48.3424C4.22435 48.7864 4.82709 49.0357 5.45552 49.0357C6.08394 49.0357 6.68669 48.7864 7.13145 48.3424L13.5448 41.93V44.2439C13.5448 44.4535 13.6281 44.6544 13.7762 44.8026C13.9244 44.9508 14.1254 45.034 14.3349 45.034H37.2469C37.4565 45.0341 37.6576 44.951 37.8059 44.8029L44.9165 37.6923C45.0646 37.5439 45.1477 37.3429 45.1476 37.1333V0.79007C45.1476 0.58053 45.0644 0.379573 44.9162 0.231406C44.768 0.0832392 44.5671 0 44.3575 0ZM6.01449 47.2254C5.86634 47.3735 5.66546 47.4567 5.45601 47.4567C5.24656 47.4567 5.04568 47.3735 4.89753 47.2254L2.66262 44.9905C2.51457 44.8424 2.4314 44.6415 2.4314 44.4321C2.4314 44.2226 2.51457 44.0217 2.66262 43.8736L15.5121 31.0241L18.864 34.3759L6.01449 47.2254ZM21.6569 29.3481L18.864 32.142L17.746 31.0241L20.5399 28.2312L21.6569 29.3481ZM19.2077 20.4095C19.2077 18.0333 20.0317 15.7306 21.5392 13.8937C23.0466 12.0569 25.1444 10.7996 27.475 10.3361C29.8055 9.87253 32.2247 10.2314 34.3204 11.3516C36.416 12.4718 38.0584 14.2839 38.9677 16.4793C39.877 18.6747 39.997 21.1174 39.3072 23.3913C38.6173 25.6652 37.1604 27.6296 35.1847 28.9497C33.2089 30.2698 30.8365 30.864 28.4717 30.6311C26.1069 30.3982 23.8961 29.3525 22.2159 27.6722C21.2592 26.7206 20.5008 25.5887 19.9845 24.3421C19.4681 23.0955 19.2041 21.7588 19.2077 20.4095ZM38.037 42.3369V37.9234H42.4505L38.037 42.3369ZM43.5675 36.3432H37.2469C37.0374 36.3432 36.8364 36.4265 36.6883 36.5746C36.5401 36.7228 36.4569 36.9238 36.4569 37.1333V43.4538H15.125V40.3499L20.5399 34.9349C20.688 34.7868 20.7711 34.5859 20.7711 34.3764C20.7711 34.167 20.688 33.9661 20.5399 33.818L19.9809 33.259L22.9417 30.2992C25.3899 31.9165 28.3514 32.5673 31.2521 32.1254C34.1529 31.6835 36.7862 30.1803 38.6417 27.9073C40.4972 25.6343 41.4427 22.7533 41.2949 19.8228C41.147 16.8924 39.9165 14.1211 37.8417 12.0463C35.7669 9.97156 32.9957 8.74099 30.0652 8.59318C27.1347 8.44538 24.2538 9.39086 21.9807 11.2464C19.7077 13.1018 18.2046 15.7352 17.7626 18.6359C17.3207 21.5366 17.9715 24.4981 19.5889 26.9463L16.6291 29.9071L16.0701 29.3481C15.9482 29.2265 15.7899 29.1481 15.6193 29.1247C15.4487 29.1014 15.2751 29.1344 15.125 29.2188V1.58014H43.5675V36.3432Z" fill="#687089"/>
<path d="M25.3946 3.16022H17.4939C17.2843 3.16022 17.0834 3.24346 16.9352 3.39162C16.787 3.53979 16.7038 3.74075 16.7038 3.95029C16.7038 4.15983 16.787 4.36078 16.9352 4.50895C17.0834 4.65712 17.2843 4.74036 17.4939 4.74036H25.3946C25.6041 4.74036 25.8051 4.65712 25.9532 4.50895C26.1014 4.36078 26.1846 4.15983 26.1846 3.95029C26.1846 3.74075 26.1014 3.53979 25.9532 3.39162C25.8051 3.24346 25.6041 3.16022 25.3946 3.16022Z" fill="#528FFF"/>
<path d="M22.2343 5.53033H17.4939C17.2843 5.53033 17.0834 5.61357 16.9352 5.76174C16.787 5.90991 16.7038 6.11086 16.7038 6.3204C16.7038 6.52994 16.787 6.7309 16.9352 6.87907C17.0834 7.02724 17.2843 7.11047 17.4939 7.11047H22.2343C22.4438 7.11047 22.6448 7.02724 22.793 6.87907C22.9411 6.7309 23.0244 6.52994 23.0244 6.3204C23.0244 6.11086 22.9411 5.90991 22.793 5.76174C22.6448 5.61357 22.4438 5.53033 22.2343 5.53033Z" fill="#528FFF"/>
</svg>
